<svg width="48" height="48" viewBox="0 0 59 46" fill="none" xmlns="http://www.w3.org/2000/svg">
<path d="M18.5112 27.1328L3.77783 21.216V19.0152L18.5112 13.097V16.5197L9.31461 20.1149L18.5112 23.7087V27.1328ZM31.9208 27.4131H27.7115L36.0877 10.4463H40.3265L31.9208 27.4131ZM40.4887 27.1285V23.7072L49.7499 20.1149L40.4887 16.5226V13.0999L55.2221 18.9922V21.2376L40.4887 27.1285Z" fill="#E44F26"/>
<path d="M23.2921 35.5537L20.2204 33.1603L17.1469 35.5523L14.0531 33.1574L10.9648 35.5508L7.88019 33.1574L5.9 34.6926L3.6875 33.5613L7.88019 30.3054L10.9648 32.7017L14.0531 30.3083L17.1413 32.7017L20.2204 30.304L23.2976 32.6988L26.3712 30.3083L29.4668 32.7031L32.5532 30.3054L35.6415 32.7031L38.739 30.3097L41.8273 32.7031L44.9248 30.3083L48.0094 32.7031L51.1051 30.3111L55.3125 33.557L53.1037 34.6955L51.1051 33.1531L48.002 35.5494L44.9211 33.1574L41.8255 35.5494L38.7353 33.1545L35.636 35.5494L32.5532 33.1574L29.4687 35.5494L26.3767 33.1574L23.2921 35.5537Z" fill="#C1272D"/>
</svg>
