<svg width="48" height="48" viewBox="0 0 53 49" fill="none" xmlns="http://www.w3.org/2000/svg">
<g clip-path="url(#clip0_187_3526)">
<path fill-rule="evenodd" clip-rule="evenodd" d="M51.6812 27.4461L47.0033 23.9985L32.2159 13.5243L25.8412 18.1913C25.2584 18.8026 25.298 19.6278 25.96 20.1993L31.788 24.0687L31.7679 24.0748L38.0318 28.6899C38.773 29.3256 38.7533 30.267 37.9763 30.8781L21.0878 43.2504L28.767 48.9015L51.6812 32.1161C53.4376 30.8264 53.4416 28.7357 51.6812 27.4398V27.4461Z" fill="#07508B"/>
<path fill-rule="evenodd" clip-rule="evenodd" d="M1.3132 21.4617L5.99128 24.9001L20.7866 35.3742L27.1573 30.7072C27.4404 30.4131 27.5832 30.0527 27.5615 29.6869C27.5399 29.321 27.3551 28.9722 27.0385 28.6992L21.2106 24.8237L21.2304 24.8144L14.9628 20.2025C14.2293 19.5698 14.2491 18.6254 15.0222 18.0172L31.9108 5.63899L24.2316 0L1.31734 16.7855C-0.439113 18.0751 -0.439113 20.1688 1.31734 21.4617H1.3132Z" fill="#E57B25"/>
</g>
<defs>
<clipPath id="clip0_187_3526">
<rect width="53" height="49" fill="white"/>
</clipPath>
</defs>
</svg>
