<svg width="440" height="440" viewBox="0 0 440 440" fill="none" xmlns="http://www.w3.org/2000/svg">
<mask id="mask0_31_626" style="mask-type:luminance" maskUnits="userSpaceOnUse" x="0" y="0" width="440" height="440">
<path d="M440 0H0V440H440V0Z" fill="white"/>
</mask>
<g mask="url(#mask0_31_626)">
<mask id="mask1_31_626" style="mask-type:luminance" maskUnits="userSpaceOnUse" x="0" y="0" width="440" height="440">
<path d="M0 0H440V440H0V0Z" fill="white"/>
</mask>
<g mask="url(#mask1_31_626)">
<mask id="mask2_31_626" style="mask-type:luminance" maskUnits="userSpaceOnUse" x="9" y="11" width="421" height="421">
<path d="M219.567 11.4541C103.657 11.4541 9.69408 105.417 9.69408 221.327C9.69408 337.237 103.657 431.2 219.567 431.2C335.477 431.2 429.44 337.237 429.44 221.327C429.44 105.417 335.477 11.4541 219.567 11.4541Z" fill="white"/>
</mask>
<g mask="url(#mask2_31_626)">
<path d="M488.668 -24.6404V406.67H-47.5204V-24.6404H488.668Z" fill="#343434"/>
<path d="M488.668 -24.6404V406.67H-47.5204V-24.6404H488.668Z" stroke="#747474"/>
<path d="M276.113 280.443C221.553 269.883 188.993 317.403 163.473 323.563C137.953 329.723 130.033 313.883 96.5932 305.963C63.1532 298.043 27.9532 348.203 -58.2868 308.603C-144.527 269.003 -230.767 305.963 -230.767 305.963L-235.167 459.083L-46.8468 482.843L568.273 453.803C568.273 453.803 672.993 283.083 573.553 305.963C526.377 316.818 455.633 298.043 423.073 289.243C390.513 280.443 368.437 329.843 336.833 309.483C291.073 280.003 276.993 281.323 276.113 280.443Z" fill="#72B3D3"/>
<mask id="mask3_31_626" style="mask-type:luminance" maskUnits="userSpaceOnUse" x="-17" y="-17" width="474" height="474">
<path d="M-16.1142 17.8744L422.103 -16.1141L456.114 422.126L17.8971 456.114L-16.1142 17.8744Z" fill="white"/>
</mask>
<g mask="url(#mask3_31_626)">
<path d="M351.484 197.597C217.342 265.101 93.9404 233.232 93.9404 233.232L80.1108 236.935L100.712 252.069L174.81 251.653L285.133 240.532L346.372 211.188L351.484 197.597Z" fill="#B19878"/>
<path d="M234.763 195.914L151.99 207.72L155.612 253.187L238.275 251.067L234.763 195.914Z" fill="#A88B67"/>
<path d="M238.474 198.278L155.701 210.085L159.322 255.551L241.986 253.431L238.474 198.278Z" fill="#D6C2A3"/>
<path d="M217.685 215.758L220.568 252.389L202.366 253.835L199.484 217.204L217.685 215.758Z" fill="white"/>
<path d="M352.197 198.408C237.512 264.51 119.941 249.963 81.0015 237.183C71.5528 262.535 98.5103 313.173 116.179 313.551C133.847 313.928 226.07 331.335 287.76 297.505C349.45 263.674 353.88 197.397 352.197 198.408Z" fill="#CDB599"/>
<path d="M244.632 190.319L138.013 203.778L145.242 211.588L254.02 197.524L244.632 190.319Z" fill="#E4CFA9"/>
<path d="M142.855 203.704L141.943 191.762" stroke="#D3C6B4" stroke-width="1.80278" stroke-linecap="round"/>
<path d="M156.827 201.754L155.915 189.812" stroke="#D3C6B4" stroke-width="1.80278" stroke-linecap="round"/>
<path d="M170.597 200.041L169.685 188.099" stroke="#D3C6B4" stroke-width="1.80278" stroke-linecap="round"/>
<path d="M185.277 198.699L184.365 186.757" stroke="#D3C6B4" stroke-width="1.80278" stroke-linecap="round"/>
<path d="M200.127 196.683L199.215 184.741" stroke="#D3C6B4" stroke-width="1.80278" stroke-linecap="round"/>
<path d="M214.116 194.952L213.204 183.01" stroke="#D3C6B4" stroke-width="1.80278" stroke-linecap="round"/>
<path d="M228.543 193.188L227.631 181.247" stroke="#D3C6B4" stroke-width="1.80278" stroke-linecap="round"/>
<path d="M137.769 203.568L137.812 205.548L145.544 212.779L253.106 198.546L252.857 196.747L145.399 210.917L137.769 203.568Z" fill="#BFA577"/>
<path d="M126.001 245.581L139.442 206.313" stroke="#B3B3B3" stroke-width="2"/>
<path d="M131.469 247.286L143.096 210.644" stroke="#C9C9C9" stroke-width="2"/>
<path d="M137.08 213.324L140.495 217.569" stroke="#C9C9C9" stroke-width="2"/>
<path d="M134.427 220.477L137.842 224.722" stroke="#C9C9C9" stroke-width="2"/>
<path d="M131.833 228.397L135.247 232.642" stroke="#C9C9C9" stroke-width="2"/>
<path d="M142.668 196.892L228.098 185.955" stroke="#D3C6B4" stroke-width="2"/>
<path d="M129.809 234.399L133.224 238.644" stroke="#C9C9C9" stroke-width="2"/>
<path d="M127.932 240.168L131.347 244.414" stroke="#C9C9C9" stroke-width="2"/>
<path d="M147.122 207.571L146.21 195.629" stroke="#C0AB91" stroke-width="1.80278" stroke-linecap="round"/>
<path d="M161.094 205.621L160.182 193.679" stroke="#C0AB91" stroke-width="1.80278" stroke-linecap="round"/>
<path d="M174.863 203.907L173.951 191.965" stroke="#C0AB91" stroke-width="1.80278" stroke-linecap="round"/>
<path d="M219.639 169.049L221.699 196.015" stroke="#C2AD94" stroke-width="3.24599"/>
<path d="M189.544 202.565L188.632 190.624" stroke="#C0AB91" stroke-width="1.80278" stroke-linecap="round"/>
<path d="M204.393 200.549L203.481 188.607" stroke="#C0AB91" stroke-width="1.80278" stroke-linecap="round"/>
<path d="M218.382 198.819L217.47 186.877" stroke="#C0AB91" stroke-width="1.80278" stroke-linecap="round"/>
<path d="M232.81 197.055L231.898 185.113" stroke="#C0AB91" stroke-width="1.80278" stroke-linecap="round"/>
<path d="M146.953 199.544L232.383 188.606" stroke="#D3C6B4" stroke-width="2"/>
<path d="M351.389 209.738C351.389 209.738 208.357 297.054 79.3335 249.837C79.3679 250.274 79.282 260.394 80.7697 262.478C82.2574 264.562 218.659 304.615 350.174 215.328C350.746 214.184 351.389 209.738 351.389 209.738Z" fill="#F88A8A"/>
<path d="M351.557 214.909C351.557 214.909 210.341 306.977 81.3177 259.77C81.3521 260.207 82.492 269.078 83.9798 271.162C85.4675 273.246 218.413 310.038 349.922 220.751C350.493 219.608 351.557 214.909 351.557 214.909Z" fill="#F8E38A"/>
<g opacity="0.18">
<path d="M350.985 198.947C328.273 212.201 310.566 221.974 280.808 229.621C308.818 249.86 299.019 287.195 301.608 286.549C350.884 253.129 351.86 198.878 350.985 198.947Z" fill="white"/>
</g>
<path d="M217.607 215.985L219.9 245.011L201.355 246.484L199.061 217.458L217.607 215.985Z" fill="#AC8C64"/>
<path d="M214.171 216.251L199.5 217.406L200.197 226.148L214.868 224.993L214.171 216.251Z" fill="#BC9F7A"/>
<path d="M214.942 226.342L200.271 227.497L200.968 236.239L215.638 235.084L214.942 226.342Z" fill="#BC9F7A"/>
<path d="M215.712 236.433L201.042 237.588L201.738 246.329L216.409 245.174L215.712 236.433Z" fill="#BC9F7A"/>
<path d="M227.874 170.747C226.944 175.273 222.513 178.192 217.986 177.261C213.46 176.329 210.54 171.899 211.47 167.373C212.401 162.847 216.832 159.928 221.358 160.859C225.885 161.791 228.805 166.221 227.874 170.747Z" stroke="#C6C6C6" stroke-width="2"/>
<path d="M229.237 162.48L210.782 174.637" stroke="#9A9A9A"/>
<path d="M225.96 177.872L213.799 159.417" stroke="#9A9A9A"/>
<path d="M230.81 162.488C230.668 163.179 229.991 163.624 229.301 163.482C228.61 163.34 228.164 162.664 228.306 161.973C228.448 161.282 229.124 160.837 229.815 160.979C230.506 161.121 230.952 161.797 230.81 162.488Z" stroke="#C6C6C6" stroke-width="2"/>
<path d="M211.531 175.358C211.389 176.048 210.713 176.494 210.022 176.352C209.331 176.209 208.885 175.533 209.027 174.843C209.169 174.152 209.846 173.706 210.536 173.848C211.227 173.991 211.673 174.667 211.531 175.358Z" stroke="#C6C6C6" stroke-width="2"/>
<path d="M215.274 159.395C215.132 160.085 214.456 160.531 213.765 160.389C213.074 160.247 212.629 159.57 212.771 158.88C212.913 158.189 213.589 157.743 214.28 157.886C214.971 158.028 215.416 158.704 215.274 159.395Z" stroke="#C6C6C6" stroke-width="2"/>
<path d="M227.837 179.341C227.695 180.031 227.019 180.477 226.328 180.335C225.637 180.193 225.191 179.516 225.333 178.826C225.475 178.135 226.152 177.689 226.842 177.832C227.533 177.974 227.979 178.65 227.837 179.341Z" stroke="#C6C6C6" stroke-width="2"/>
<path d="M95.0195 223.392C80.9217 223.189 92.2038 237.82 92.2038 237.82L99.7665 241.624C99.7665 241.624 106.111 242.552 106.211 242.434C105.001 232.73 101.185 223.48 95.0195 223.392Z" fill="#BFBFBF"/>
<path d="M89.6671 224.018C83.5897 225.052 85.3956 238.124 85.3956 238.124L99.2609 240.988C99.2609 240.988 99.3875 241.198 99.4882 241.08C98.2791 231.374 95.7445 222.985 89.6671 224.018Z" fill="#A7A7A7"/>
<path d="M91.1249 227.663C92.6258 227.544 93.9413 228.667 94.0606 230.168C94.1799 231.669 93.0582 232.985 91.5573 233.104C90.0563 233.223 88.7408 232.1 88.6215 230.599C88.5022 229.098 89.624 227.782 91.1249 227.663Z" fill="#CDCDCD"/>
<path d="M142.855 203.828L139.243 162.183" stroke="#C2AD94" stroke-width="3"/>
<path d="M137.961 162.372C137.961 162.372 132.531 163.578 131.273 167.165C130.014 170.752 126.49 171.343 125.253 170.979C124.016 170.615 134.677 172.608 139.463 170.73C139.085 166.996 137.961 162.372 137.961 162.372Z" fill="#F49696"/>
<path d="M102.762 261.79C102.762 261.79 102.577 272.383 100.06 272.783C97.5442 273.184 95.8702 274.881 93.6082 271.885C91.3463 268.889 88.9829 266.324 88.9829 266.324C88.9829 266.324 92.1169 278.455 99.3418 276.547C106.567 274.639 102.762 261.79 102.762 261.79Z" fill="#7E7E7E"/>
<path d="M96.0114 264.294C95.0447 262.213 95.2536 264.634 95.2536 264.634C95.2536 264.634 95.7855 267.801 94.8318 268.256C94.8472 268.309 96.7611 269.175 97.2733 270.916C97.7853 272.656 98.2607 274.464 98.2607 274.464L99.8176 274.117L98.3477 270.482C98.3477 270.482 97.9476 268.537 98.6156 267.307C98.0606 266.784 96.9479 266.31 96.0114 264.294Z" fill="#7E7E7E"/>
<path d="M89.8264 239.46C89.2975 241.736 88.8195 241.477 89.4901 242.195C90.1606 242.913 91.3028 244.064 92.4107 243.163C93.5186 242.263 93.5701 239.727 93.309 239.231C93.0479 238.736 90.3553 237.185 89.8264 239.46Z" stroke="#747474"/>
<path d="M89.0929 233.828C88.564 236.104 88.0861 235.845 88.7566 236.563C89.4271 237.281 90.5694 238.432 91.6773 237.532C92.7851 236.631 92.8367 234.095 92.5756 233.599C92.3144 233.104 89.6218 231.553 89.0929 233.828Z" stroke="#747474"/>
<path d="M89.6925 229.813C89.1636 232.089 88.6856 231.83 89.3562 232.548C90.0267 233.266 91.169 234.417 92.2768 233.516C93.3847 232.615 93.4362 230.079 93.1751 229.584C92.914 229.088 90.2214 227.537 89.6925 229.813Z" stroke="#747474"/>
<path d="M90.7398 244.924C90.2109 247.2 89.7329 246.941 90.4034 247.659C91.074 248.377 92.2162 249.528 93.3241 248.627C94.4319 247.726 94.4835 245.19 94.2224 244.695C93.9613 244.199 91.2687 242.648 90.7398 244.924Z" stroke="#747474"/>
<path d="M91.8407 250.983C91.9572 253.319 91.4258 253.201 92.2688 253.708C93.1118 254.215 94.528 255.009 95.347 253.837C96.166 252.665 95.5184 250.211 95.1308 249.806C94.7432 249.4 91.7243 248.648 91.8407 250.983Z" stroke="#747474"/>
<path d="M92.7759 255.351C92.8924 257.687 92.361 257.569 93.204 258.076C94.047 258.582 95.4632 259.376 96.2822 258.205C97.1012 257.033 96.4537 254.579 96.066 254.174C95.6784 253.768 92.6595 253.016 92.7759 255.351Z" stroke="#747474"/>
<path d="M93.0797 259.905C93.1962 262.241 92.6648 262.123 93.5078 262.629C94.3508 263.136 95.767 263.93 96.586 262.759C97.405 261.587 96.7575 259.132 96.3698 258.727C95.9822 258.322 92.9633 257.57 93.0797 259.905Z" stroke="#747474"/>
</g>
<path d="M365.315 259.078C310.755 248.518 278.195 296.038 252.675 302.198C227.155 308.358 219.235 292.518 185.795 284.598C152.355 276.678 117.155 326.838 30.9155 287.238C-55.3245 247.638 -141.565 284.598 -141.565 284.598L-145.965 437.718L42.3555 461.478L657.475 432.438C657.475 432.438 762.195 261.718 662.755 284.598C615.58 295.453 544.835 276.678 512.275 267.878C479.715 259.078 457.639 308.478 426.035 288.118C380.275 258.638 366.195 259.958 365.315 259.078Z" fill="#A2D5EE"/>
<path d="M269.137 289.335C214.577 278.775 178.497 309.575 152.977 315.735C127.457 321.895 101.937 320.135 68.4973 312.215C50.1537 307.87 26.2573 299.015 -0.137375 301.681C-20.0967 303.697 -34.2497 326.572 -73.1827 308.695C-159.423 269.095 -237.743 314.855 -237.743 314.855L-242.143 467.974L-53.8227 491.734L561.297 462.694C561.297 462.694 666.017 291.975 566.577 314.855C519.401 325.709 450.981 298.135 416.097 298.135C382.369 298.135 361.461 338.734 329.857 318.375C284.097 288.895 270.017 290.215 269.137 289.335Z" fill="#6DB4D8"/>
<path d="M73.8706 31.415C83.0061 30.8269 83.852 39.256 83.852 39.256C83.852 39.256 89.7731 37.5898 90.5344 42.7844C91.2615 47.7466 87.2355 47.8811 87.2355 47.8811H64.2276C64.2276 47.8811 60.7595 44.2546 65.581 41.0202C65.7502 41.0202 64.7351 32.0031 73.8706 31.415Z" fill="#EBEFF7"/>
<path d="M335.172 90.815C344.308 90.227 345.154 98.656 345.154 98.656C345.154 98.656 351.075 96.9898 351.836 102.184C352.563 107.147 348.537 107.281 348.537 107.281H325.529C325.529 107.281 322.061 103.655 326.883 100.42C327.052 100.42 326.037 91.4031 335.172 90.815Z" fill="#D9DFED"/>
<path d="M290.879 4.57483C335.801 4.57483 372.275 41.0484 372.275 85.9709C372.275 130.893 335.801 167.367 290.879 167.367C245.957 167.367 209.483 130.893 209.483 85.9709C209.483 41.0484 245.957 4.57483 290.879 4.57483Z" fill="#373737"/>
<path d="M290.263 35.5989C319.881 35.5989 343.928 59.6464 343.928 89.2645C343.928 118.882 319.881 142.93 290.263 142.93C260.645 142.93 236.597 118.882 236.597 89.2645C236.597 59.6464 260.645 35.5989 290.263 35.5989Z" fill="#3A3A3A"/>
<path d="M288.283 69.52C298.77 69.52 307.285 78.0351 307.285 88.5227C307.285 99.0103 298.77 107.525 288.283 107.525C277.795 107.525 269.28 99.0103 269.28 88.5227C269.28 78.0351 277.795 69.52 288.283 69.52Z" fill="white"/>
<path d="M317.73 86.1912C300.39 85.2279 298.784 99.0357 298.784 99.0357C298.784 99.0357 287.545 96.3063 286.1 104.816C284.72 112.944 292.362 113.165 292.362 113.165H336.033C336.033 113.165 342.616 107.224 333.464 101.926C333.143 101.926 335.07 87.1546 317.73 86.1912Z" fill="#949494"/>
<path d="M187.639 72.2405L180.819 72.1776L180.164 71.9224C180.164 71.9224 183.542 70.2574 186.273 69.5652C189.004 68.873 190.657 68.9478 191.232 68.9478C191.807 68.9478 190.801 69.5652 190.729 69.8084C190.657 70.0516 190.082 70.2948 190.01 70.5006C189.939 70.7064 189.22 70.9122 188.932 71.0431C188.645 71.1741 188.573 71.4547 188.573 71.6044C188.573 71.7541 187.639 72.2405 187.639 72.2405Z" fill="#E6BB5F"/>
<path d="M187.639 72.2405L180.819 72.1776L180.164 71.9224C180.164 71.9224 183.542 70.2574 186.273 69.5652C189.004 68.873 190.657 68.9478 191.232 68.9478C191.807 68.9478 190.801 69.5652 190.729 69.8084C190.657 70.0516 190.082 70.2948 190.01 70.5006C189.939 70.7064 189.22 70.9122 188.932 71.0431C188.645 71.1741 188.573 71.4547 188.573 71.6044C188.573 71.7541 187.639 72.2405 187.639 72.2405Z" fill="#E6BB5F"/>
<path d="M182.609 73.2195L177.007 73.2145L176.468 73.1944C176.468 73.1944 179.243 73.063 181.487 73.0084C183.731 72.9537 185.089 72.9596 185.561 72.9596C186.034 72.9596 185.207 73.0084 185.148 73.0275C185.089 73.0467 184.617 73.0659 184.558 73.0822C184.499 73.0984 183.908 73.1147 183.672 73.125C183.436 73.1353 183.377 73.1575 183.377 73.1693C183.377 73.1811 182.609 73.2195 182.609 73.2195Z" fill="#D4B95C"/>
<path d="M182.609 73.2195L177.007 73.2145L176.468 73.1944C176.468 73.1944 179.243 73.063 181.487 73.0084C183.731 72.9537 185.089 72.9596 185.561 72.9596C186.034 72.9596 185.207 73.0084 185.148 73.0275C185.089 73.0467 184.617 73.0659 184.558 73.0822C184.499 73.0984 183.908 73.1147 183.672 73.125C183.436 73.1353 183.377 73.1575 183.377 73.1693C183.377 73.1811 182.609 73.2195 182.609 73.2195Z" fill="#D4B95C"/>
<path d="M186.066 67.6632C177.83 66.0792 172.919 71.148 172.523 70.9896C172.127 70.8312 170.543 69.7224 168.563 69.4848C166.583 69.2472 165.633 70.5144 165.237 71.8608C163.653 71.8608 160.564 74.8704 160.564 74.8704C160.564 74.8704 162.782 72.8112 166.9 73.9992C171.018 75.1872 170.464 74.7912 171.969 73.4448C182.978 77.1672 182.661 75.9792 187.096 75.2664C193.383 74.2558 196.996 71.3064 195.729 71.4648C194.462 71.6232 194.303 69.2472 186.066 67.6632Z" fill="#E5D69D"/>
<path d="M168.124 71.03C168.296 71.03 168.436 71.1701 168.436 71.3427C168.436 71.5153 168.296 71.6554 168.124 71.6554C167.951 71.6554 167.811 71.5153 167.811 71.3427C167.811 71.1701 167.951 71.03 168.124 71.03Z" fill="#8D8D8D"/>
<path d="M168.124 71.03C168.296 71.03 168.436 71.1701 168.436 71.3427C168.436 71.5153 168.296 71.6554 168.124 71.6554C167.951 71.6554 167.811 71.5153 167.811 71.3427C167.811 71.1701 167.951 71.03 168.124 71.03Z" stroke="#747474" stroke-width="0.72"/>
<path d="M165.078 71.8215C165.078 71.8215 161.594 73.2072 161.198 74.3952C161.198 74.5143 164.326 73.128 166.227 73.5639L165.078 71.8215Z" fill="#B09C6F"/>
</g>
</g>
</g>
</svg>
